<?xml version="1.0" encoding="UTF-8" standalone="no"?>
<svg
   height="48"
   width="48"
   version="1.1"
   id="svg34"
   sodipodi:docname="hydrogen.svg"
   inkscape:version="1.3.2 (091e20ef0f, 2023-11-25, custom)"
   xml:space="preserve"
   xmlns:inkscape="http://www.inkscape.org/namespaces/inkscape"
   xmlns:sodipodi="http://sodipodi.sourceforge.net/DTD/sodipodi-0.dtd"
   xmlns:xlink="http://www.w3.org/1999/xlink"
   xmlns="http://www.w3.org/2000/svg"
   xmlns:svg="http://www.w3.org/2000/svg"><defs
     id="defs38"><linearGradient
       id="linearGradient1"
       inkscape:collect="always"><stop
         style="stop-color:#ff8e36;stop-opacity:1"
         offset="0"
         id="stop1" /><stop
         style="stop-color:#ff5335;stop-opacity:1"
         offset="1"
         id="stop3" /></linearGradient><linearGradient
       inkscape:collect="always"
       xlink:href="#linearGradient1"
       id="linearGradient3"
       x1="24.619135"
       y1="10.725361"
       x2="24.619135"
       y2="38.899326"
       gradientUnits="userSpaceOnUse" /></defs><sodipodi:namedview
     id="namedview36"
     pagecolor="#ffffff"
     bordercolor="#666666"
     borderopacity="1.0"
     inkscape:pageshadow="2"
     inkscape:pageopacity="0.0"
     inkscape:pagecheckerboard="0"
     showgrid="false"
     inkscape:snap-page="true"
     inkscape:zoom="1.8932291"
     inkscape:cx="84.511694"
     inkscape:cy="-8.1870703"
     inkscape:window-width="1920"
     inkscape:window-height="1015"
     inkscape:window-x="0"
     inkscape:window-y="37"
     inkscape:window-maximized="1"
     inkscape:current-layer="svg34"
     inkscape:showpageshadow="2"
     inkscape:deskcolor="#d1d1d1" /><linearGradient
     id="a"
     gradientTransform="matrix(.31785146 0 0 .3152682 6.502858 -26.592294)"
     gradientUnits="userSpaceOnUse"
     x1="41.749325"
     x2="41.357147"
     y1="226.20387"
     y2="102.25676"><stop
       offset="0"
       stop-color="#ff5335"
       id="stop2" /><stop
       offset="1"
       stop-color="#ff8f36"
       id="stop4" /></linearGradient><linearGradient
     id="b"
     gradientUnits="userSpaceOnUse"
     x1="1.405646"
     x2="8.575851"
     y1="32.349785"
     y2="20.109837"><stop
       offset="0"
       stop-color="#ff6535"
       id="stop7" /><stop
       offset="1"
       stop-color="#ff7936"
       id="stop9" /></linearGradient><rect
     style="fill:none"
     id="rect920"
     width="48"
     height="48"
     x="0"
     y="0" /><style
     type="text/css"
     id="style1">
	.st0{fill:#000000;}
</style><rect
     style="fill:url(#linearGradient3);stroke-width:1.06693;fill-opacity:1"
     id="rect1"
     width="25.521553"
     height="25.521553"
     x="11.239223"
     y="11.239223"
     ry="1.8077815" /><g
     id="g10"
     transform="matrix(0.04303517,0,0,0.04361796,12.982975,12.833785)"
     style="fill:#ffffff">
	<path
   class="st0"
   d="m 55.542,281.347 v 118.61 c 0,32.571 24.824,61.89 64.435,82.394 V 333.454 C 91.426,319.871 69.096,301.997 55.542,281.347 Z"
   id="path1"
   style="fill:#ffffff" />
	<path
   class="st0"
   d="m 144.445,493.174 c 28.181,10.588 61.444,17.252 97.294,18.657 V 361.06 c -35.679,-1.318 -68.73,-7.542 -97.294,-17.582 z"
   id="path2"
   style="fill:#ffffff" />
	<path
   class="st0"
   d="m 266.201,512 c 37.407,-1.047 72.109,-7.842 101.354,-18.819 V 343.479 c -29.649,10.42 -64.12,16.732 -101.354,17.721 z"
   id="path3"
   style="fill:#ffffff" />
	<path
   class="st0"
   d="m 392.024,333.454 v 148.882 c 39.611,-20.489 64.435,-49.808 64.435,-82.379 v -118.61 c -13.547,20.65 -35.881,38.524 -64.435,52.107 z"
   id="path4"
   style="fill:#ffffff" />
	<path
   class="st0"
   d="m 256.542,251.618 c -7.667,8.794 -6.744,22.129 2.043,29.788 8.787,7.674 22.133,6.751 29.792,-2.036 7.66,-8.802 6.744,-22.136 -2.043,-29.803 -8.794,-7.659 -22.132,-6.737 -29.792,2.051 z"
   id="path5"
   style="fill:#ffffff" />
	<path
   class="st0"
   d="m 318.378,195.666 -29.368,41.46 9.289,8.091 37.048,-34.767 c 10.838,-10.156 21.151,-20.855 30.909,-32.043 l 78.641,-90.244 c 4.671,-5.36 4.107,-13.474 -1.245,-18.145 L 442.7,69.183 c -5.352,-4.664 -13.473,-4.1 -18.145,1.246 l -78.64,90.243 c -9.762,11.203 -18.948,22.875 -27.537,34.994 z"
   id="path6"
   style="fill:#ffffff" />
	<path
   class="st0"
   d="m 211.197,221.009 c -10.731,-4.554 -23.136,0.454 -27.691,11.189 -4.554,10.734 0.458,23.139 11.189,27.693 10.732,4.555 23.128,-0.454 27.69,-11.188 4.555,-10.735 -0.45,-23.124 -11.188,-27.694 z"
   id="path7"
   style="fill:#ffffff" />
	<path
   class="st0"
   d="m 278.649,134.31 c -2.212,5.214 -4.57,10.384 -6.986,15.539 19.903,0.937 39.322,3.617 57.453,7.872 1.889,-2.256 3.782,-4.504 5.708,-6.715 l 14.967,-17.179 c -20.166,-5.99 -42.361,-10.09 -65.874,-11.928 z"
   id="path8"
   style="fill:#ffffff" />
	<path
   class="st0"
   d="m 456.458,232.974 c 0,-29.122 -19.844,-55.652 -52.363,-75.598 l -18.468,21.191 c 0.531,0.278 1.08,0.557 1.6,0.85 28.02,15.677 44.093,35.207 44.093,53.557 0,18.365 -16.073,37.887 -44.093,53.572 -34.017,19.024 -81.844,29.95 -131.231,29.95 -49.376,0 -97.207,-10.926 -131.22,-29.95 -28.024,-15.685 -44.1,-35.207 -44.1,-53.572 0,-18.35 16.076,-37.88 44.1,-53.557 23.706,-13.268 54.132,-22.583 87.109,-27.013 3.211,-10.098 6.777,-20.152 10.695,-30.03 -94.794,8.912 -167.038,55.022 -167.038,110.6 0,61.956 89.749,112.181 200.455,112.181 110.72,0.001 200.461,-50.225 200.461,-112.181 z"
   id="path9"
   style="fill:#ffffff" />
	<path
   class="st0"
   d="m 221.218,213.16 24.447,-44.536 c 7.15,-13.034 13.638,-26.391 19.438,-40.069 L 311.871,18.38 C 314.65,11.833 311.6,4.291 305.061,1.516 l -1.164,-0.49 c -6.539,-2.775 -14.088,0.278 -16.86,6.81 l -46.769,110.176 c -5.808,13.678 -10.918,27.627 -15.327,41.811 l -15.059,48.526 z"
   id="path10"
   style="fill:#ffffff" />
</g></svg>
