<?xml version="1.0" encoding="UTF-8" standalone="no"?>
<svg
   height="48"
   width="48"
   version="1.1"
   id="svg22"
   sodipodi:docname="logout.svg"
   inkscape:version="1.3.2 (091e20ef0f, 2023-11-25, custom)"
   xml:space="preserve"
   xmlns:inkscape="http://www.inkscape.org/namespaces/inkscape"
   xmlns:sodipodi="http://sodipodi.sourceforge.net/DTD/sodipodi-0.dtd"
   xmlns="http://www.w3.org/2000/svg"
   xmlns:svg="http://www.w3.org/2000/svg"><defs
     id="defs26" /><sodipodi:namedview
     id="namedview24"
     pagecolor="#ffffff"
     bordercolor="#666666"
     borderopacity="1.0"
     inkscape:pageshadow="2"
     inkscape:pageopacity="0.0"
     inkscape:pagecheckerboard="0"
     showgrid="false"
     inkscape:snap-page="true"
     inkscape:zoom="7.5729165"
     inkscape:cx="-4.4896837"
     inkscape:cy="23.834939"
     inkscape:window-width="1920"
     inkscape:window-height="1015"
     inkscape:window-x="0"
     inkscape:window-y="37"
     inkscape:window-maximized="1"
     inkscape:current-layer="svg22"
     inkscape:showpageshadow="2"
     inkscape:deskcolor="#d1d1d1" /><linearGradient
     id="a"
     gradientUnits="userSpaceOnUse"
     x1="399.57144"
     x2="399.57144"
     y1="545.79797"
     y2="517.79797"><stop
       offset="0"
       stop-color="#3889e9"
       id="stop2" /><stop
       offset="1"
       stop-color="#5ea5fb"
       id="stop4" /></linearGradient><linearGradient
     id="b"
     gradientUnits="userSpaceOnUse"
     x1="406.261427102156"
     x2="406.75200856436"
     y1="545.723118583684"
     y2="519.356703971946"><stop
       offset="0"
       stop-color="#566069"
       id="stop7" /><stop
       offset="1"
       stop-color="#6c7884"
       id="stop9" /></linearGradient><rect
     style="fill:none"
     id="rect872"
     width="48"
     height="48"
     x="0"
     y="0" /><g
     style="fill:#616d77;fill-opacity:1"
     id="g1"
     transform="matrix(0.60111636,0,0,0.60008611,5.0227565,4.8686457)"><path
       d="M 31.52,8.55103 C 25.6805,8.55573 20.0548,10.7487 15.7526,14.6973 11.4504,18.6458 8.78426,24.0633 8.28,29.881 h 21.06 l -1.89,-1.88 c -0.1866,-0.1851 -0.3349,-0.4051 -0.4364,-0.6475 -0.1015,-0.2425 -0.1542,-0.5026 -0.1552,-0.7654 -9e-4,-0.2628 0.05,-0.5233 0.1498,-0.7664 0.0998,-0.2432 0.2465,-0.4642 0.4318,-0.6506 0.1851,-0.1867 0.4051,-0.335 0.6476,-0.4365 0.2424,-0.1015 0.5025,-0.1542 0.7653,-0.1551 0.2629,-0.001 0.5233,0.0499 0.7665,0.1497 0.2431,0.0998 0.4642,0.2465 0.6506,0.4318 l 5.33,5.3 v 0.01 c 0.1103,0.1084 0.2076,0.2292 0.29,0.36 0.0544,0.0858 0.1013,0.1761 0.14,0.27 0.01,0.02 0.02,0.03 0.02,0.05 0.0424,0.1071 0.0759,0.2175 0.1,0.33 v 0.02 c 0.0286,0.1246 0.0421,0.2522 0.04,0.38 0.0021,0.1279 -0.0114,0.2555 -0.04,0.38 -0.0113,0.1035 -0.0382,0.2047 -0.08,0.3 -0.009,0.035 -0.0224,0.0686 -0.04,0.1 -0.0082,0.0241 -0.0182,0.0475 -0.03,0.07 -0.0251,0.0643 -0.0587,0.1248 -0.1,0.18 -0.023,0.0455 -0.0497,0.089 -0.08,0.13 -0.0586,0.0864 -0.1256,0.1668 -0.2,0.24 l -0.02,0.02 -5.33,5.36 c -0.1846,0.1863 -0.4042,0.3343 -0.6462,0.4356 -0.2419,0.1012 -0.5015,0.1537 -0.7638,0.1544 -0.2623,-7e-4 -0.5218,-0.0532 -0.7638,-0.1544 -0.242,-0.1013 -0.4615,-0.2493 -0.6462,-0.4356 -0.1871,-0.1837 -0.336,-0.4028 -0.4379,-0.6444 -0.1019,-0.2417 -0.1548,-0.5012 -0.1558,-0.7635 -9e-4,-0.2623 0.0502,-0.5221 0.1504,-0.7645 0.1002,-0.2424 0.2475,-0.4625 0.4333,-0.6476 l 1.95,-1.96 H 8.28 c 0.50426,5.8177 3.1704,11.2352 7.4726,15.1838 4.3022,3.9486 9.9279,6.1415 15.7674,6.1462 6.1869,-0.0047 12.1193,-2.4639 16.4951,-6.8378 C 52.3909,43.9993 54.8526,38.068 54.86,31.881 54.8526,25.6941 52.3909,19.7628 48.0151,15.3889 43.6393,11.015 37.7069,8.55579 31.52,8.55103 Z"
       fill="#999999"
       id="path1"
       style="fill:#616d77;fill-opacity:1" /></g></svg>
